<?xml version="1.0" standalone="no"?><!DOCTYPE svg PUBLIC "-//W3C//DTD SVG 1.1//EN" "http://www.w3.org/Graphics/SVG/1.1/DTD/svg11.dtd" ><svg xmlns="http://www.w3.org/2000/svg"><metadata></metadata><defs><font id="fonteditor" horiz-adv-x="256"><font-face font-family="e¹kc^|~¿{OS" font-weight="400" font-stretch="normal" units-per-em="256" panose-1="3 0 5 9 0 0 0 0 0 0" ascent="226" descent="-63" x-height="0" bbox="-3 -52 250 211" underline-thickness="0" underline-position="0" unicode-range="U+002f-ff0c" /><missing-glyph horiz-adv-x="256"  /><glyph glyph-name="slash" unicode="/" d="M7 -5 L-3 -5 L71 191 L83 191 L7 -5 Z" /><glyph glyph-name="A" unicode="a" d="M67 192 L129 0 L115 0 L99 56 L36 56 L19 0 L6 0 L67 192 ZM67 159 L38 66 L96 66 L67 159 Z" /><glyph glyph-name="B" unicode="b" d="M33 10 L72 10 Q106 14 108 48 Q104 88 65 91 L33 91 L33 10 ZM74 0 L21 0 L21 184 L66 184 Q110 182 112 139 Q111 110 82 98 Q119 86 120 49 Q120 32 113 22 Q99 0 74 0 ZM33 101 L52 101 Q99 102 100 140 Q101 174 61 174 L33 174 L33 101 Z" /><glyph glyph-name="C" unicode="c" d="M115 150 L103 150 Q99 176 72 178 Q26 178 26 91 Q25 7 71 7 Q103 10 105 40 L118 40 Q112 -1 70 -2 Q39 -2 25 25 Q14 48 14 90 Q14 141 29 165 Q45 188 72 188 Q109 186 115 150 Z" /><glyph glyph-name="D" unicode="d" d="M21 0 L21 184 L67 184 Q97 184 111 158 Q122 137 122 92 Q122 44 108 20 Q93 0 63 0 L21 0 ZM33 174 L33 10 L56 10 Q92 9 102 34 Q110 52 110 92 Q110 134 101 152 Q90 176 56 174 L33 174 Z" /><glyph glyph-name="E" unicode="e" d="M113 184 L113 174 L35 174 L35 100 L91 100 L91 90 L35 90 L35 10 L115 10 L115 0 L23 0 L23 184 L113 184 Z" /><glyph glyph-name="F" unicode="f" d="M114 184 L114 174 L32 174 L32 101 L94 101 L94 91 L32 91 L32 0 L20 0 L20 184 L114 184 Z" /><glyph glyph-name="G" unicode="g" d="M110 79 L65 79 L65 89 L122 89 L122 -2 L110 -2 L109 26 Q99 -1 66 -2 Q33 -2 21 31 Q14 52 14 86 Q14 140 27 163 Q40 188 69 188 Q108 187 113 142 L101 142 Q99 176 70 178 Q47 178 36 155 Q26 134 26 91 Q26 56 33 35 Q42 7 67 7 Q109 9 110 64 L110 79 Z" /><glyph glyph-name="H" unicode="h" d="M33 184 L33 101 L106 101 L106 184 L118 184 L118 0 L106 0 L106 91 L33 91 L33 0 L21 0 L21 184 L33 184 Z" /><glyph glyph-name="I" unicode="i" d="M84 184 L84 174 L59 174 L59 10 L84 10 L84 0 L21 0 L21 10 L47 10 L47 174 L21 174 L21 184 L84 184 Z" /><glyph glyph-name="J" unicode="j" d="M55 184 L102 184 L102 58 Q103 -4 52 -2 Q5 -3 6 56 L6 75 L18 75 L18 49 Q18 6 52 7 Q89 8 90 49 L90 174 L55 174 L55 184 Z" /><glyph glyph-name="K" unicode="k" d="M33 184 L33 100 Q52 100 77 136 Q94 159 103 185 L116 178 Q113 173 108 164 Q98 149 94 141 Q71 106 50 94 L129 0 L112 0 L39 90 L33 90 L33 0 L21 0 L21 184 L33 184 Z" /><glyph glyph-name="L" unicode="l" d="M35 184 L35 10 L116 10 L116 0 L23 0 L23 184 L35 184 Z" /><glyph glyph-name="M" unicode="m" d="M77 83 L119 184 L133 184 L133 0 L121 0 L120 160 L77 58 L35 160 L34 159 L34 0 L22 0 L22 184 L35 184 L77 83 Z" /><glyph glyph-name="N" unicode="n" d="M102 0 L35 168 L34 167 L34 0 L22 0 L22 184 L39 184 L102 26 L103 27 L103 184 L115 184 L115 0 L102 0 Z" /><glyph glyph-name="O" unicode="o" d="M68 -2 Q42 -2 28 17 Q14 39 14 92 Q14 141 25 162 Q39 188 68 188 Q99 188 111 162 Q123 140 122 92 Q122 51 114 31 Q103 -3 68 -2 ZM26 92 Q26 48 37 28 Q46 7 68 7 Q94 6 103 36 Q110 55 110 92 Q110 138 98 160 Q88 178 68 178 Q49 179 37 158 Q26 138 26 92 Z" /><glyph glyph-name="P" unicode="p" d="M23 0 L23 184 L65 184 Q114 183 115 129 Q115 104 101 90 Q86 75 58 75 L35 75 L35 0 L23 0 ZM65 174 L35 174 L35 85 L57 85 Q101 85 102 129 Q102 173 65 174 Z" /><glyph glyph-name="Q" unicode="q" d="M103 11 L124 -14 L109 -14 L94 4 Q83 -2 68 -2 Q35 -2 23 29 Q14 51 14 92 Q14 137 25 159 Q37 188 68 188 Q97 188 111 163 Q123 141 123 92 Q123 62 119 46 Q114 21 103 11 ZM26 92 Q24 7 68 7 Q112 7 110 92 Q111 180 68 178 Q24 178 26 92 Z" /><glyph glyph-name="R" unicode="r" d="M21 0 L21 184 L65 184 Q112 182 114 134 Q114 116 105 102 Q96 88 78 82 L128 0 L113 0 L67 80 L33 80 L33 0 L21 0 ZM33 174 L33 90 L63 90 Q100 93 101 135 Q100 173 65 174 L33 174 Z" /><glyph glyph-name="S" unicode="s" d="M113 167 L106 158 Q83 179 66 178 Q33 176 31 145 Q29 126 60 108 L76 99 Q121 74 118 48 Q116 0 66 -2 Q35 -2 14 24 L23 31 Q40 7 66 7 Q102 10 105 45 Q111 66 69 89 L52 99 Q18 118 19 144 Q21 185 66 188 Q92 188 113 167 Z" /><glyph glyph-name="T" unicode="t" d="M129 184 L129 174 L76 174 L76 0 L64 0 L64 174 L11 174 L11 184 L129 184 Z" /><glyph glyph-name="U" unicode="u" d="M105 184 L118 184 L118 47 Q118 23 103 10 Q89 -2 69 -2 Q53 -2 39 7 Q21 22 21 45 L21 184 L33 184 L33 54 Q33 29 45 15 Q56 7 69 7 Q86 7 95 17 Q105 28 105 49 L105 184 Z" /><glyph glyph-name="V" unicode="v" d="M59 8 L95 184 L109 184 L69 0 L49 0 L7 184 L22 184 L59 8 Z" /><glyph glyph-name="W" unicode="w" d="M63 122 L96 20 L106 184 L121 184 L106 0 L90 0 L63 91 L37 0 L20 0 L6 184 L20 184 L31 20 L63 122 Z" /><glyph glyph-name="X" unicode="x" d="M7 184 L21 184 L56 105 L90 184 L104 184 L62 93 L106 0 L91 0 L55 82 L20 0 L5 0 L50 93 L7 184 Z" /><glyph glyph-name="Y" unicode="y" d="M56 92 L95 184 L109 184 L62 78 L62 0 L50 0 L50 78 L4 184 L18 184 L56 92 Z" /><glyph glyph-name="Z" unicode="z" d="M17 184 L108 184 L108 174 L29 10 L114 10 L114 0 L14 0 L14 10 L94 174 L17 174 L17 184 Z" /><glyph glyph-name="a" unicode="a" d="M86 35 L86 70 Q70 78 57 78 Q26 77 25 39 Q27 9 51 7 Q71 6 86 35 ZM104 0 L93 -1 Q90 5 88 19 Q88 20 88 20 Q72 -2 51 -1 Q32 -1 21 12 Q13 23 13 40 Q13 61 25 75 Q34 88 54 88 Q69 88 87 79 Q90 130 59 128 Q45 128 27 119 L24 130 Q43 138 60 138 Q99 137 99 91 Q99 82 98 63 Q98 45 97 35 Q98 15 104 0 Z" /><glyph glyph-name="b" unicode="b" d="M26 190 L38 190 L38 127 Q52 138 71 138 Q123 132 125 69 Q125 39 114 23 Q99 0 72 -1 Q47 -1 36 19 L31 -1 L20 0 Q26 18 26 48 L26 190 ZM38 115 L38 35 Q50 6 72 7 Q92 8 104 28 Q113 44 113 68 Q112 125 68 128 Q55 128 38 115 Z" /><glyph glyph-name="c" unicode="c" d="M106 29 L114 20 Q95 -1 70 -1 Q14 1 13 66 Q13 106 33 124 Q47 138 69 138 Q96 138 115 111 L104 104 Q92 128 69 128 Q26 126 25 68 Q26 11 69 7 Q88 7 106 29 Z" /><glyph glyph-name="d" unicode="d" d="M112 190 L112 48 Q112 18 118 0 L106 -1 L102 19 Q90 -1 66 -1 Q42 -1 27 18 Q13 38 13 69 Q15 131 66 138 Q85 138 100 127 L100 190 L112 190 ZM100 35 L100 115 Q83 128 69 128 Q26 124 25 68 Q26 12 66 7 Q88 7 100 35 Z" /><glyph glyph-name="e" unicode="e" d="M111 21 L116 9 Q87 -1 67 -1 Q16 0 13 67 Q13 98 28 119 Q41 138 68 138 Q117 135 118 66 L25 66 Q27 7 68 7 Q88 7 111 21 ZM25 76 L106 76 Q103 124 67 128 Q28 124 25 76 Z" /><glyph glyph-name="f" unicode="f" d="M116 179 L116 167 Q112 169 105 172 Q93 178 84 178 Q59 178 56 150 L56 126 L101 126 L101 116 L56 116 L56 0 L44 0 L44 116 L9 116 L9 126 L44 126 L44 142 Q46 163 53 174 Q64 188 83 188 Q98 188 116 179 Z" /><glyph glyph-name="g" unicode="g" d="M22 -23 L30 -16 Q44 -30 63 -31 Q97 -29 98 12 L98 29 Q82 13 60 12 Q17 15 13 72 Q15 136 63 138 Q80 139 100 123 L103 138 L115 138 Q110 118 110 76 Q110 70 110 67 L110 10 Q110 -12 95 -27 Q82 -40 61 -41 Q39 -40 22 -23 ZM98 43 L98 108 Q84 128 62 128 Q27 126 25 75 Q26 27 61 22 Q83 23 98 43 Z" /><glyph glyph-name="h" unicode="h" d="M20 0 L20 190 L32 190 L33 106 Q49 137 78 138 Q109 134 110 99 L110 0 L98 0 L98 85 Q98 128 76 128 Q60 128 46 111 Q32 94 32 68 L32 0 L20 0 Z" /><glyph glyph-name="i" unicode="i" d="M63 0 L63 125 L24 125 L24 135 L75 135 L75 0 L63 0 ZM69 188 Q81 187 82 175 Q81 162 69 161 Q56 162 55 175 Q56 187 69 188 Z" /><glyph glyph-name="j" unicode="j" d="M9 7 L21 7 Q21 -31 48 -31 Q75 -29 77 -2 L77 125 L37 125 L37 135 L89 135 L89 0 Q86 -38 49 -41 Q30 -41 19 -28 Q9 -15 9 7 ZM82 188 Q94 187 95 175 Q94 162 82 161 Q69 162 68 175 Q69 187 82 188 Z" /><glyph glyph-name="k" unicode="k" d="M88 135 L104 135 Q96 125 90 119 Q66 90 63 87 Q59 84 50 74 L115 0 L99 0 L43 67 L30 54 L30 0 L18 0 L18 190 L30 190 L30 69 Q45 83 59 99 Q74 114 88 135 Z" /><glyph glyph-name="l" unicode="l" d="M63 0 L63 180 L24 180 L24 190 L76 190 L76 0 L63 0 Z" /><glyph glyph-name="m" unicode="m" d="M26 0 L26 94 Q26 121 22 138 L34 138 L37 121 Q51 138 69 138 Q84 138 90 122 Q102 138 118 138 Q143 137 144 110 L144 0 L132 0 L132 109 Q132 128 116 128 Q102 128 91 111 L91 0 L79 0 L79 104 Q80 128 65 128 Q48 127 38 108 L38 0 L26 0 Z" /><glyph glyph-name="n" unicode="n" d="M37 56 L37 0 L25 0 L25 68 Q26 113 20 137 L31 137 L37 98 Q50 135 85 138 Q115 137 116 97 L116 0 L104 0 L104 91 Q106 129 83 128 Q60 127 47 102 Q38 86 37 56 Z" /><glyph glyph-name="o" unicode="o" d="M65 -1 Q35 0 22 24 Q13 42 13 68 Q13 98 25 117 Q40 138 65 138 Q116 134 117 68 Q116 1 65 -1 ZM65 7 Q104 8 105 68 Q104 127 65 128 Q26 127 25 68 Q26 8 65 7 Z" /><glyph glyph-name="p" unicode="p" d="M26 -52 L26 88 Q26 118 20 137 L31 138 L36 116 Q47 138 72 138 Q95 137 111 118 Q125 97 125 67 Q125 38 111 19 Q97 0 71 -1 Q50 -1 38 9 L38 -52 L26 -52 ZM38 101 L38 21 Q54 7 68 7 Q112 11 113 68 Q112 123 72 128 Q51 129 38 101 Z" /><glyph glyph-name="q" unicode="q" d="M112 -52 L100 -52 L100 9 Q85 -2 66 -1 Q42 0 26 19 Q14 36 13 67 Q13 98 27 119 Q42 138 66 138 Q90 137 102 116 L106 138 L118 137 Q112 118 112 88 L112 -52 ZM100 21 L100 101 Q87 129 66 128 Q26 123 25 68 Q26 11 69 7 Q84 7 100 21 Z" /><glyph glyph-name="r" unicode="r" d="M37 55 L37 0 L25 0 L25 94 L20 137 L31 137 L36 99 Q55 138 82 138 Q110 137 111 97 L99 97 Q100 128 81 128 Q66 127 52 109 Q37 86 37 55 Z" /><glyph glyph-name="s" unicode="s" d="M96 124 L91 114 Q72 128 54 128 Q29 125 27 103 Q27 86 57 76 Q101 62 100 33 Q100 15 85 5 Q74 -1 59 -1 Q32 0 8 19 L15 29 Q38 8 60 7 Q87 9 88 32 Q90 53 56 65 Q14 78 15 104 Q18 135 55 138 Q76 138 96 124 Z" /><glyph glyph-name="t" unicode="t" d="M100 135 L100 125 L51 125 L51 33 Q52 7 72 7 Q92 7 104 31 L115 29 Q101 0 72 -1 Q53 -2 46 10 Q39 19 39 40 L39 125 L8 125 L8 135 L39 135 L39 179 L51 179 L51 135 L100 135 Z" /><glyph glyph-name="u" unicode="u" d="M99 81 L99 135 L111 135 L111 69 Q111 35 116 0 L105 0 L99 38 Q86 1 51 -1 Q21 0 20 40 L20 135 L32 135 L32 46 Q32 6 53 7 Q72 8 87 29 Q99 50 99 81 Z" /><glyph glyph-name="v" unicode="v" d="M93 135 L106 135 L63 0 L49 0 L6 135 L19 135 L56 16 L93 135 Z" /><glyph glyph-name="w" unicode="w" d="M29 0 L5 135 L19 135 L38 18 L62 101 L75 101 L99 18 L118 135 L131 135 L107 0 L94 0 L68 86 L42 0 L29 0 Z" /><glyph glyph-name="x" unicode="x" d="M113 135 L72 73 L124 0 L108 0 L65 65 L22 0 L6 0 L59 73 L16 135 L30 135 L65 82 L99 135 L113 135 Z" /><glyph glyph-name="y" unicode="y" d="M116 135 L130 135 L80 7 Q79 5 78 2 Q70 -16 64 -24 Q52 -41 37 -41 Q15 -40 6 -15 L16 -10 Q24 -31 37 -31 Q51 -31 61 -6 L72 16 L28 135 L41 135 L78 31 L116 135 Z" /><glyph glyph-name="z" unicode="z" d="M24 135 L111 135 L111 125 L27 10 L114 10 L114 0 L12 0 L12 10 L96 125 L24 125 L24 135 Z" /><glyph glyph-name="uni4E0D" unicode="&#x4e0d;" d="M235 183 L235 175 L23 175 L23 183 L235 183 ZM21 48 Q92 85 137 168 L145 165 Q99 78 25 41 L21 48 ZM239 41 Q227 56 202 84 Q177 113 164 127 L170 133 Q182 119 208 90 Q233 61 245 47 L239 41 ZM137 -18 L128 -18 L128 123 L137 121 L137 -18 Z" /><glyph glyph-name="uni4E2A" unicode="&#x4e2a;" d="M23 123 Q80 148 122 196 Q130 206 141 196 Q180 152 237 125 L233 118 Q181 142 135 188 Q131 193 126 188 Q81 140 27 115 L23 123 ZM126 154 L134 152 L134 -20 L126 -20 L126 154 Z" /><glyph glyph-name="uni4E8E" unicode="&#x4e8e;" d="M46 182 L46 190 L216 190 L216 182 L134 182 L134 108 L241 108 L241 100 L134 100 L134 3 Q140 -18 92 -16 L91 -7 Q132 -9 125 3 L125 100 L19 100 L19 108 L125 108 L125 182 L46 182 Z" /><glyph glyph-name="uni4ECE" unicode="&#x4ece;" d="M162 184 L162 206 L170 203 L170 184 Q173 53 95 -24 L89 -19 Q164 58 162 184 ZM72 174 L72 202 L81 200 L81 174 Q81 49 23 -20 L15 -15 Q72 53 72 174 ZM244 -15 L238 -21 Q191 33 167 125 L175 127 Q203 29 244 -15 ZM123 33 L116 28 Q89 64 74 79 L80 84 Q106 58 123 33 Z" /><glyph glyph-name="uni4EE3" unicode="&#x4ee3;" d="M8 100 Q53 139 85 198 L92 194 Q60 135 15 93 L8 100 ZM82 109 Q92 110 110 112 Q128 113 137 114 Q132 158 134 198 L142 196 Q141 157 146 114 Q161 116 188 118 Q215 121 230 122 L233 114 Q219 113 192 110 Q162 108 147 106 Q161 29 201 -3 Q214 -14 223 -1 Q230 7 236 20 L243 14 Q236 0 228 -10 Q213 -25 191 -6 Q152 28 138 105 Q129 105 112 103 Q94 102 84 101 L82 109 ZM189 177 Q205 172 220 163 L216 156 Q201 165 185 171 L189 177 ZM59 125 L59 -22 L50 -22 L50 127 L59 125 Z" /><glyph glyph-name="uni4F17" unicode="&#x4f17;" d="M242 111 L238 102 Q172 125 126 176 Q92 124 21 100 L17 108 Q97 134 130 201 L138 196 Q137 193 134 189 Q132 186 131 184 Q172 134 242 111 ZM71 104 L80 103 Q77 21 16 -14 L9 -8 Q69 25 71 104 ZM170 102 L179 99 Q175 13 115 -17 L110 -11 Q169 20 170 102 ZM239 -10 L233 -17 Q201 7 175 41 L181 46 Q211 9 239 -10 ZM127 18 L121 10 Q102 30 76 45 L81 52 Q98 41 123 22 Q125 19 127 18 Z" /><glyph glyph-name="uni4F53" unicode="&#x4f53;" d="M209 21 L209 13 L168 13 L168 -25 L159 -25 L159 13 L119 13 L119 21 L159 21 L159 136 L88 136 L88 145 L159 145 L159 202 L168 200 L168 145 L241 145 L241 136 L168 136 L168 21 L209 21 ZM52 135 L61 133 L61 -25 L52 -25 L52 135 ZM74 201 L82 198 Q53 125 13 83 L6 89 Q42 125 74 201 ZM174 116 L183 118 Q203 58 246 26 L240 20 Q197 51 174 116 ZM141 118 L148 115 Q130 58 88 18 L82 24 Q121 60 141 118 Z" /><glyph glyph-name="uni4F7F" unicode="&#x4f7f;" d="M165 126 L165 158 L85 158 L85 166 L165 166 L165 204 L173 202 L173 166 L244 166 L244 158 L173 158 L173 126 L234 126 L234 66 L170 66 Q163 33 155 17 Q196 -10 244 -19 L242 -27 Q191 -16 150 9 Q129 -15 83 -27 L79 -19 Q126 -6 143 15 Q130 27 112 47 L118 53 Q135 34 148 23 Q157 42 161 66 L93 66 L93 126 L165 126 ZM165 118 L102 118 L102 74 L162 74 Q163 85 164 104 Q165 113 165 118 ZM225 118 L173 118 Q173 103 171 80 Q171 76 171 74 L225 74 L225 118 ZM48 137 L56 135 L56 -25 L48 -25 L48 137 ZM75 202 L82 198 Q56 139 14 100 L8 106 Q49 145 75 202 Z" /><glyph glyph-name="uni5168" unicode="&#x5168;" d="M57 51 L57 59 L124 59 L124 108 L74 108 L74 116 L183 116 L183 108 L132 108 L132 59 L195 59 L195 51 L132 51 L132 -4 L237 -4 L237 -12 L17 -12 L17 -4 L124 -4 L124 51 L57 51 ZM244 119 L241 111 Q168 138 134 188 Q132 192 130 192 Q128 192 126 188 Q91 140 18 113 L15 121 Q90 148 123 200 Q130 208 136 200 Q171 143 244 119 Z" /><glyph glyph-name="uni5177" unicode="&#x5177;" d="M241 37 L241 28 L19 28 L19 37 L59 37 L59 188 L204 188 L204 37 L241 37 ZM67 179 L67 150 L195 150 L195 179 L67 179 ZM195 112 L195 142 L67 142 L67 112 L195 112 ZM195 104 L67 104 L67 75 L195 75 L195 104 ZM195 67 L67 67 L67 37 L195 37 L195 67 ZM228 -26 Q208 -10 181 7 Q173 13 168 16 L174 22 Q176 21 180 18 Q213 -3 234 -20 L228 -26 ZM22 -20 Q61 1 84 20 L90 14 Q63 -8 27 -26 L22 -20 Z" /><glyph glyph-name="uni524D" unicode="&#x524d;" d="M31 125 L114 125 L114 0 Q117 -18 89 -16 L86 -8 Q108 -10 105 0 L105 38 L40 38 L40 -14 L31 -14 L31 125 ZM40 78 L40 46 L105 46 L105 78 L40 78 ZM40 117 L40 86 L105 86 L105 117 L40 117 ZM17 156 L239 156 L239 148 L17 148 L17 156 ZM185 -19 L183 -10 Q216 -12 212 0 L212 133 L220 131 L220 0 Q225 -20 185 -19 ZM168 14 L159 14 L159 118 L168 116 L168 14 ZM104 171 L97 165 Q84 183 69 196 L75 202 Q85 194 102 174 Q103 172 104 171 ZM155 165 L149 171 Q162 182 179 202 L185 196 Q172 179 155 165 Z" /><glyph glyph-name="uni5316" unicode="&#x5316;" d="M13 84 Q55 127 90 198 L98 194 Q80 158 62 131 L69 129 L69 -25 L61 -25 L61 129 Q37 97 19 79 L13 84 ZM111 58 L107 66 Q114 70 112 69 Q136 82 149 89 L149 200 L157 198 L157 94 Q196 121 229 154 L235 148 Q196 109 157 84 L157 1 Q158 -10 171 -10 L210 -10 Q232 -12 235 26 L243 24 Q239 -21 210 -18 L171 -18 Q150 -17 149 1 L149 79 Q129 69 111 58 Z" /><glyph glyph-name="uni5355" unicode="&#x5355;" d="M15 17 L15 26 L125 26 L125 55 L48 55 L48 155 L141 155 Q171 189 187 209 L194 204 Q169 174 150 155 L210 155 L210 55 L134 55 L134 26 L242 26 L242 17 L134 17 L134 -29 L125 -29 L125 17 L15 17 ZM125 63 L125 101 L57 101 L57 63 L125 63 ZM134 101 L134 63 L202 63 L202 101 L134 101 ZM134 147 L134 109 L202 109 L202 147 L134 147 ZM125 147 L57 147 L57 109 L125 109 L125 147 ZM110 170 L104 164 Q76 190 63 198 L68 205 Q70 203 75 200 Q96 183 110 170 Z" /><glyph glyph-name="uni5668" unicode="&#x5668;" d="M217 200 L217 138 L145 138 L145 200 L217 200 ZM36 198 L103 198 L103 138 L36 138 L36 198 ZM94 146 L94 190 L44 190 L44 146 L94 146 ZM153 146 L208 146 L208 193 L153 193 L153 146 ZM105 110 Q110 118 117 136 Q119 141 120 144 L128 142 Q120 122 114 110 L237 110 L237 102 L111 102 Q80 51 12 48 L11 57 Q68 57 101 102 L19 102 L19 110 L105 110 ZM181 118 L174 113 Q163 124 157 129 L165 134 Q174 127 181 118 ZM107 -18 L40 -18 L40 47 L107 47 L107 -18 ZM138 47 L212 47 L212 -20 L138 -20 L138 47 ZM49 39 L49 -10 L99 -10 L99 39 L49 39 ZM147 -12 L204 -12 L204 39 L147 39 L147 -12 ZM160 101 Q195 70 247 50 L243 42 Q187 64 153 95 L160 101 Z" /><glyph glyph-name="uni56DB" unicode="&#x56db;" d="M36 170 L229 170 L229 7 L36 7 L36 170 ZM72 44 L65 49 Q104 89 103 163 L44 163 L44 15 L220 15 L220 163 L155 163 L155 67 Q155 58 163 58 L205 58 L205 50 L163 50 Q146 50 146 67 L146 163 L111 163 Q112 88 72 44 Z" /><glyph glyph-name="uni5728" unicode="&#x5728;" d="M104 153 Q116 177 125 206 L133 203 Q124 175 114 153 L236 153 L236 145 L110 145 Q80 90 17 59 L14 67 Q71 95 100 145 L20 145 L20 153 L104 153 ZM89 -5 L165 -5 L165 67 L106 67 L106 75 L165 75 L165 126 L173 122 L173 75 L228 75 L228 67 L173 67 L173 -5 L241 -5 L241 -13 L89 -13 L89 -5 ZM68 -24 L68 78 L77 75 L77 -24 L68 -24 Z" /><glyph glyph-name="uni57FA" unicode="&#x57fa;" d="M81 77 L81 165 L28 165 L28 173 L81 173 L81 205 L89 202 L89 173 L173 173 L173 202 L182 200 L182 173 L239 173 L239 165 L182 165 L182 77 L242 77 L242 68 L22 68 L22 77 L81 77 ZM89 141 L173 141 L173 165 L89 165 L89 141 ZM89 109 L173 109 L173 133 L89 133 L89 109 ZM173 77 L173 101 L89 101 L89 77 L173 77 ZM26 22 Q56 39 79 62 L85 56 Q60 32 31 14 L26 22 ZM234 17 Q205 34 178 56 L184 62 Q209 41 239 25 L234 17 ZM127 22 L89 22 L89 30 L127 30 L127 58 L136 56 L136 30 L173 30 L173 22 L136 22 L136 -8 L215 -8 L215 -16 L43 -16 L43 -8 L127 -8 L127 22 Z" /><glyph glyph-name="uni5904" unicode="&#x5904;" d="M245 -1 L246 -10 Q227 -12 183 -12 Q116 -12 84 31 Q59 2 18 -18 L13 -11 Q53 9 80 38 Q61 69 53 117 L62 119 Q70 71 86 46 Q119 89 127 160 Q128 163 124 163 L75 163 L75 171 L125 171 Q138 171 136 159 Q129 86 91 38 Q120 -2 183 -3 Q222 -3 245 -1 ZM178 15 L168 15 L168 199 L178 197 L178 15 ZM67 202 L76 200 Q61 132 23 82 L16 87 Q52 133 67 202 ZM184 133 L189 140 Q224 113 243 95 L237 88 Q226 99 189 129 Q186 132 184 133 Z" /><glyph glyph-name="uni591A" unicode="&#x591a;" d="M48 125 L41 130 Q96 154 131 200 L138 196 Q135 191 128 184 Q126 181 124 179 L195 179 Q200 179 200 177 Q201 175 198 170 Q146 87 32 57 L28 65 Q80 78 124 107 Q121 110 114 115 Q108 121 92 133 L98 139 Q106 134 120 121 Q128 115 131 112 Q165 136 186 167 Q187 169 187 170 Q186 171 183 171 L122 171 L122 177 Q93 145 48 125 ZM78 42 Q143 63 187 112 L193 106 Q146 55 82 35 L78 42 ZM169 16 Q208 40 232 75 Q233 76 233 78 Q232 79 230 79 L178 79 L178 87 L240 87 Q246 87 247 85 Q248 83 245 79 Q176 -27 31 -22 L29 -14 Q99 -18 162 11 Q149 27 132 43 L139 49 Q147 40 159 27 Q166 20 169 16 Z" /><glyph glyph-name="uni5982" unicode="&#x5982;" d="M19 137 L63 137 Q73 167 82 196 L90 194 Q88 188 84 175 Q76 149 72 137 L125 137 Q118 71 98 25 Q103 20 112 12 Q122 3 127 -1 L121 -7 Q114 0 104 7 Q97 13 93 17 Q69 -13 23 -25 L21 -16 Q66 -6 86 24 Q64 44 40 51 Q34 53 35 58 Q38 66 44 83 Q56 114 61 129 L19 129 L19 137 ZM151 3 L151 162 L229 162 L229 3 L151 3 ZM220 11 L220 154 L159 154 L159 11 L220 11 ZM91 31 Q110 75 115 129 L69 129 Q61 105 45 58 Q70 51 91 31 Z" /><glyph glyph-name="uni5B89" unicode="&#x5b89;" d="M125 137 L134 133 Q119 110 109 95 L241 95 L241 87 L103 87 Q90 70 71 50 Q107 48 141 32 Q159 55 172 81 L179 77 Q169 57 149 28 Q192 1 214 -14 L208 -20 Q185 -2 143 22 Q105 -10 40 -16 L38 -8 Q102 -2 135 26 Q95 44 59 43 Q55 42 55 43 Q54 45 58 49 Q76 67 92 87 L17 87 L17 95 L98 95 Q114 116 125 137 ZM229 158 L29 158 L29 118 L21 118 L21 167 L237 167 L237 121 L229 121 L229 158 ZM140 172 L133 168 Q125 187 118 198 L125 202 Q129 196 140 172 Z" /><glyph glyph-name="uni5DE5" unicode="&#x5de5;" d="M40 167 L40 175 L229 175 L229 167 L137 167 L137 11 L244 11 L244 3 L21 3 L21 11 L128 11 L128 167 L40 167 Z" /><glyph glyph-name="uni5F0F" unicode="&#x5f0f;" d="M196 -8 Q159 32 143 131 L21 131 L21 140 L142 140 Q142 144 142 150 Q140 180 141 209 L149 207 Q149 179 149 168 Q150 155 151 140 L239 140 L239 131 L152 131 Q165 40 202 -2 Q214 -17 225 -3 Q229 0 236 11 Q238 15 239 17 L246 11 Q244 9 241 4 Q234 -5 231 -9 Q217 -32 196 -8 ZM225 173 L219 166 Q211 173 197 184 Q191 189 188 191 L193 198 Q209 186 225 173 ZM136 14 L138 5 Q124 3 102 0 Q55 -4 19 -10 L17 -1 Q63 3 136 14 ZM82 9 L73 9 L73 75 L25 75 L25 83 L132 83 L132 75 L82 75 L82 9 Z" /><glyph glyph-name="uni6301" unicode="&#x6301;" d="M12 46 Q19 49 34 56 Q48 63 55 66 L55 131 L17 131 L17 140 L55 140 L55 202 L63 200 L63 140 L97 140 L97 131 L63 131 L63 70 Q67 72 74 76 Q81 80 97 90 L100 82 Q94 79 82 72 Q69 65 63 61 L63 1 Q64 -22 33 -20 L31 -12 Q55 -13 55 1 L55 57 Q48 53 33 47 Q21 41 15 38 L12 46 ZM172 110 L172 154 L118 154 L118 163 L172 163 L172 202 L180 200 L180 163 L233 163 L233 154 L180 154 L180 110 L246 110 L246 102 L105 102 L105 110 L172 110 ZM103 62 L199 62 L199 87 L208 85 L208 62 L241 62 L241 54 L208 54 L208 1 Q209 -25 161 -22 L159 -14 Q201 -16 199 1 L199 54 L103 54 L103 62 ZM133 0 Q126 12 115 26 L123 31 Q134 13 140 3 L133 0 Z" /><glyph glyph-name="uni652F" unicode="&#x652f;" d="M124 104 L124 148 L15 148 L15 156 L124 156 L124 200 L132 198 L132 156 L239 156 L239 148 L132 148 L132 104 L191 104 Q197 103 195 97 Q172 47 134 18 Q173 -4 235 -8 L233 -16 Q169 -12 125 13 Q75 -10 19 -18 L17 -10 Q76 0 119 20 Q90 51 73 78 L80 83 Q96 60 128 24 Q165 52 185 96 L42 96 L42 104 L124 104 Z" /><glyph glyph-name="uni6548" unicode="&#x6548;" d="M216 142 L172 142 L172 150 L243 150 L243 142 L225 142 Q219 60 187 18 Q207 2 242 -8 L237 -16 Q207 -7 181 13 Q157 -7 109 -19 L105 -11 Q149 -2 176 19 Q159 56 157 101 L166 101 Q168 60 182 26 Q211 69 216 142 ZM88 94 L96 92 Q90 68 79 44 Q86 36 100 17 Q104 12 106 10 L99 4 Q92 15 73 36 Q52 3 14 -17 L10 -10 Q44 8 67 42 Q53 56 27 74 L32 81 Q53 66 71 50 Q81 71 88 94 ZM61 202 L69 205 Q78 187 83 168 L76 165 L134 165 L134 156 L14 156 L14 165 L75 165 Q70 187 61 202 ZM167 207 L176 206 Q173 143 132 80 L123 83 Q163 140 167 207 ZM24 90 L17 96 Q35 115 46 133 L53 128 Q41 109 24 90 ZM87 134 L94 140 Q97 137 102 131 Q112 120 118 113 L111 108 Q97 124 87 134 Z" /><glyph glyph-name="uni65E0" unicode="&#x65e0;" d="M20 106 L20 114 L115 114 Q122 138 124 180 L48 180 L48 188 L215 188 L215 180 L132 180 Q132 144 124 114 L238 114 L238 106 L149 106 L149 8 Q150 0 159 -1 L198 -1 Q226 -3 229 35 L238 32 Q232 -12 199 -9 L159 -9 Q141 -8 140 8 L140 106 L122 106 Q97 15 23 -13 L21 -5 Q89 24 113 106 L20 106 Z" /><glyph glyph-name="uni672A" unicode="&#x672a;" d="M16 106 L126 106 L126 156 L46 156 L46 165 L126 165 L126 200 L135 200 L135 165 L216 165 L216 156 L135 156 L135 106 L241 106 L241 98 L135 98 L135 -25 L126 -25 L126 98 L16 98 L16 106 ZM232 -14 Q174 15 148 76 L156 80 Q182 21 237 -7 L232 -14 ZM19 -5 Q83 22 106 81 L114 77 Q89 14 24 -13 L19 -5 Z" /><glyph glyph-name="uni67E5" unicode="&#x67e5;" d="M126 102 L126 163 L12 163 L12 171 L126 171 L126 209 L135 207 L135 171 L244 171 L244 163 L135 163 L135 102 L126 102 ZM12 100 Q75 111 107 154 L113 148 Q80 105 15 91 L12 100 ZM248 91 Q187 102 147 146 L153 152 Q196 107 250 100 L248 91 ZM191 7 L69 7 L69 87 L191 87 L191 7 ZM78 79 L78 51 L183 51 L183 79 L78 79 ZM78 16 L183 16 L183 43 L78 43 L78 16 ZM241 -10 L241 -18 L23 -18 L23 -10 L241 -10 Z" /><glyph glyph-name="uni683C" unicode="&#x683c;" d="M106 124 Q141 158 159 198 L166 194 Q149 154 112 118 L106 124 ZM18 143 L56 143 L56 204 L65 202 L65 143 L96 143 L96 135 L65 135 L65 -25 L56 -25 L56 135 L18 135 L18 143 ZM178 109 Q201 134 217 164 L158 164 L158 173 L218 173 Q232 172 225 159 Q211 134 184 102 Q211 77 246 61 L242 53 Q202 72 178 96 Q142 69 108 51 L102 58 Q140 77 172 103 Q163 114 148 138 Q145 143 144 145 L152 150 Q160 132 178 109 ZM96 83 L88 80 Q82 98 75 115 L83 119 Q87 110 94 89 Q95 85 96 83 ZM20 47 L12 50 Q30 78 39 118 L48 115 Q37 73 20 47 ZM227 45 L227 -18 L126 -18 L126 45 L227 45 ZM218 37 L135 37 L135 -10 L218 -10 L218 37 Z" /><glyph glyph-name="uni68C0" unicode="&#x68c0;" d="M59 138 L22 138 L22 146 L59 146 L59 203 L68 200 L68 146 L98 146 L98 138 L68 138 L68 -23 L59 -23 L59 138 ZM106 111 L99 117 Q138 154 167 202 L176 197 Q175 195 173 193 Q170 190 169 188 Q202 146 241 118 L233 110 Q198 138 164 181 Q146 153 106 111 ZM98 -1 L237 -1 L237 -9 L98 -9 L98 -1 ZM120 110 L214 110 L214 102 L120 102 L120 110 ZM38 122 L46 120 Q43 74 25 34 L17 36 Q33 72 38 122 ZM184 4 L177 8 Q194 39 214 83 L221 79 Q214 62 184 4 ZM178 36 L170 33 Q155 66 144 83 L152 87 Q168 61 178 36 ZM95 67 L86 66 Q83 93 79 121 L88 122 Q92 99 95 67 ZM143 25 L135 21 Q124 44 111 65 L119 70 Q137 40 143 25 Z" /><glyph glyph-name="uni6B64" unicode="&#x6b64;" d="M155 198 L164 196 L164 11 Q163 -3 178 -1 L214 -1 Q229 -6 235 30 L243 28 Q237 -14 215 -10 L178 -10 Q154 -11 155 10 L155 198 ZM139 22 L141 13 Q89 4 17 -5 L15 1 Q73 10 139 22 ZM91 15 L82 15 L82 192 L91 190 L91 112 L134 112 L134 104 L91 104 L91 15 ZM173 101 L168 108 Q199 120 232 138 L237 131 Q204 112 173 101 ZM44 131 L44 9 L36 9 L36 133 L44 131 Z" /><glyph glyph-name="uni6D3B" unicode="&#x6d3b;" d="M97 186 Q160 185 216 198 L218 190 Q193 184 166 181 L166 125 L241 125 L241 116 L166 116 L166 60 L229 60 L229 -18 L97 -18 L97 60 L157 60 L157 116 L80 116 L80 125 L157 125 L157 180 Q133 177 99 177 L97 186 ZM220 -10 L220 51 L105 51 L105 -10 L220 -10 ZM59 171 Q41 182 25 188 L29 196 Q32 194 40 191 Q57 182 63 179 L59 171 ZM28 -18 L21 -14 Q43 26 61 74 L69 71 Q51 19 28 -18 ZM41 93 Q27 100 8 109 L12 117 Q19 114 35 105 Q43 102 46 100 L41 93 Z" /><glyph glyph-name="uni7075" unicode="&#x7075;" d="M198 151 L198 183 L43 183 L43 191 L207 191 L207 103 L40 103 L40 111 L198 111 L198 143 L53 143 L53 151 L198 151 ZM126 96 L134 94 Q134 91 134 86 Q133 78 133 73 Q147 6 232 -17 L229 -26 Q155 -5 128 51 Q108 0 26 -27 L23 -18 Q114 10 124 73 Q124 77 125 84 Q125 92 126 96 ZM52 39 L45 45 Q56 60 66 76 L73 71 Q64 56 52 39 ZM193 39 L186 45 Q197 60 207 76 L214 71 Q205 56 193 39 Z" /><glyph glyph-name="uni7528" unicode="&#x7528;" d="M17 -12 Q40 25 41 62 L41 187 L221 187 L221 1 Q229 -14 180 -12 L179 -3 Q218 -4 212 1 L212 54 L134 54 L134 -10 L125 -10 L125 54 L50 54 Q46 21 25 -16 L17 -12 ZM50 125 L125 125 L125 179 L50 179 L50 125 ZM134 125 L212 125 L212 179 L134 179 L134 125 ZM125 62 L125 117 L50 117 L50 62 L125 62 ZM212 62 L212 117 L134 117 L134 62 L212 62 Z" /><glyph glyph-name="uni7684" unicode="&#x7684;" d="M111 154 L111 -3 L23 -3 L23 154 L111 154 ZM31 3 L103 3 L103 70 L31 70 L31 3 ZM31 79 L103 79 L103 146 L31 146 L31 79 ZM235 150 L168 150 L168 158 L244 158 Q243 67 233 5 Q232 -18 170 -16 L166 -8 Q225 -10 224 7 Q235 56 235 150 ZM172 198 L180 195 Q162 149 131 111 L124 116 Q152 149 172 198 ZM190 55 L182 50 Q169 74 150 105 L158 109 Q165 97 182 68 Q179 74 190 55 ZM71 194 L79 191 Q74 173 65 157 L57 160 Q62 169 71 194 Z" /><glyph glyph-name="uni7801" unicode="&#x7801;" d="M44 102 L99 102 L99 -1 L44 -1 L44 102 ZM208 94 L227 94 Q241 94 239 82 Q237 33 233 6 Q232 -24 188 -23 L186 -14 Q223 -18 224 6 Q226 21 229 61 Q230 76 231 82 Q231 86 227 86 L136 86 Q123 86 123 97 Q125 117 127 144 Q129 163 129 170 L138 169 Q138 164 137 151 Q134 121 133 98 Q132 95 139 94 L198 94 Q200 109 205 145 Q208 170 209 180 Q209 186 205 186 L115 186 L115 194 L209 194 Q220 193 219 184 Q217 171 215 154 Q212 128 208 94 ZM52 93 L52 5 L90 5 L90 93 L52 93 ZM54 174 L20 174 L20 182 L100 182 L100 174 L63 174 Q50 101 16 50 L8 55 Q43 107 54 174 ZM210 42 L210 35 L113 35 L113 42 L210 42 Z" /><glyph glyph-name="uni7AEF" unicode="&#x7aef;" d="M162 68 L156 73 Q163 83 172 95 L179 91 Q177 88 171 80 Q166 72 163 68 L239 68 L239 -1 Q242 -24 214 -26 L212 -19 Q234 -17 231 -1 L231 60 L195 60 L195 -14 L187 -14 L187 60 L155 60 L155 -14 L147 -14 L147 60 L115 60 L115 -20 L107 -20 L107 68 L162 68 ZM172 140 L172 198 L180 196 L180 140 L225 140 L225 182 L233 179 L233 131 L119 131 L119 184 L128 182 L128 140 L172 140 ZM109 110 L237 110 L237 102 L109 102 L109 110 ZM95 42 L99 35 Q81 28 48 15 Q29 7 19 3 L15 11 Q25 15 45 23 Q78 36 95 42 ZM17 140 L17 148 L107 148 L107 140 L17 140 ZM73 45 L65 47 Q75 77 86 123 L94 121 Q88 89 73 45 ZM33 112 L42 114 Q44 104 47 70 Q47 73 48 64 L40 62 Q40 64 39 69 Q36 100 33 112 ZM69 157 L61 153 Q56 174 47 191 L55 195 Q59 184 66 166 Q68 160 69 157 Z" /><glyph glyph-name="uni7B80" unicode="&#x7b80;" d="M171 2 L88 2 L88 89 L171 89 L171 2 ZM103 123 L223 123 L223 5 Q226 -21 191 -22 L186 -12 Q218 -13 215 3 L215 115 L103 115 L103 123 ZM163 44 L96 44 L96 10 L163 10 L163 44 ZM96 81 L96 51 L163 51 L163 81 L96 81 ZM37 -23 L37 107 L45 104 L45 -23 L37 -23 ZM23 135 L17 140 Q38 166 58 203 L65 199 Q43 158 23 135 ZM161 203 L169 200 Q156 167 134 136 L126 140 Q147 169 161 203 ZM240 176 L240 167 L163 167 L163 176 L240 176 ZM127 176 L127 167 L56 167 L56 176 L127 176 ZM46 129 L52 136 Q69 124 79 114 L73 108 Q66 115 46 129 ZM202 138 L194 133 Q186 147 175 160 L183 164 Q185 162 188 157 Q193 153 202 138 ZM95 136 L88 131 Q78 146 70 157 L77 162 Q79 158 84 152 Q91 142 95 136 Z" /><glyph glyph-name="uni7EBF" unicode="&#x7ebf;" d="M106 69 L103 78 Q115 80 136 85 Q148 87 154 88 Q153 95 151 108 Q149 122 148 128 Q127 124 103 119 L100 128 Q109 129 124 132 Q140 135 148 136 Q146 172 146 207 L155 205 Q154 172 156 138 Q183 143 224 152 L224 143 Q211 141 187 136 Q167 132 157 130 Q159 109 162 90 Q183 94 227 104 Q224 103 234 105 L234 97 Q223 95 199 90 Q176 85 164 82 Q168 63 175 43 Q176 41 177 38 Q179 34 179 32 Q200 53 215 80 L221 73 Q199 38 183 24 Q199 -3 217 -15 Q232 -21 236 8 L244 6 Q235 -34 215 -23 Q193 -10 177 18 Q155 -2 103 -21 L100 -13 Q149 3 173 26 Q170 32 168 38 Q161 56 156 80 Q130 75 106 69 ZM95 70 L95 62 Q86 60 66 56 Q42 50 29 48 Q18 48 23 59 Q30 68 50 97 Q58 109 62 115 Q57 115 44 114 Q27 113 22 112 Q11 113 17 123 Q40 158 64 200 L72 195 Q67 187 51 161 Q32 130 27 122 Q32 122 46 122 Q61 123 68 123 Q82 146 94 166 L101 160 Q60 97 34 57 Q39 58 47 60 Q77 66 95 70 ZM101 27 L101 18 Q96 16 85 12 Q41 -2 21 -9 L18 0 Q51 8 101 27 ZM172 196 L177 202 Q197 188 213 173 L207 167 Q196 177 177 192 Q174 195 172 196 Z" /><glyph glyph-name="uni7F16" unicode="&#x7f16;" d="M103 91 L103 166 L230 166 L230 114 L112 114 L112 109 Q115 17 81 -22 L74 -17 Q104 17 103 91 ZM126 -18 L117 -18 L117 84 L237 84 L237 -7 Q240 -21 218 -22 L216 -13 Q228 -13 228 -8 Q228 -8 228 -7 L228 35 L199 35 L199 -9 L190 -9 L190 35 L163 35 L163 -10 L154 -10 L154 35 L126 35 L126 -18 ZM221 122 L221 158 L112 158 L112 122 L221 122 ZM84 69 L85 61 Q60 58 23 54 Q18 53 16 56 Q15 58 18 62 Q47 100 63 122 Q42 122 20 120 Q15 119 14 122 Q13 125 16 129 Q29 148 58 195 Q59 197 60 198 L67 194 Q50 165 27 132 Q27 131 27 130 Q26 128 28 128 Q34 129 53 130 Q64 131 69 131 Q81 146 86 154 L93 149 Q66 111 29 65 Q28 63 31 63 Q38 64 51 65 Q71 67 84 69 ZM228 42 L228 76 L199 76 L199 42 L228 42 ZM126 42 L154 42 L154 76 L126 76 L126 42 ZM163 42 L190 42 L190 76 L163 76 L163 42 ZM85 25 L86 16 Q53 13 18 8 L16 17 Q28 18 76 24 Q82 25 85 25 ZM179 174 L172 168 Q167 176 153 193 Q149 197 147 200 L154 205 Q170 187 179 174 Z" /><glyph glyph-name="uni8303" unicode="&#x8303;" d="M80 183 L80 204 L88 201 L88 183 L170 183 L170 204 L179 201 L179 183 L242 183 L242 174 L179 174 L179 145 L170 145 L170 174 L88 174 L88 145 L80 145 L80 174 L15 174 L15 183 L80 183 ZM42 145 L48 151 Q54 145 71 128 Q78 121 80 119 L73 113 Q60 128 42 145 ZM247 11 Q234 -19 212 -17 L137 -17 Q115 -17 115 3 L115 122 L223 122 L223 56 Q224 31 191 29 L189 37 Q215 38 214 56 L214 113 L124 113 L124 3 Q125 -9 137 -9 L212 -9 Q229 -11 239 15 L247 11 ZM15 96 L20 103 Q40 85 52 71 L46 65 Q43 68 36 75 Q21 90 15 96 ZM21 -13 Q52 21 80 61 L87 55 Q59 16 27 -19 L21 -13 Z" /><glyph glyph-name="uni88C5" unicode="&#x88c5;" d="M120 162 L120 170 L172 170 L172 200 L181 198 L181 170 L239 170 L239 162 L181 162 L181 120 L227 120 L227 112 L128 112 L128 120 L172 120 L172 162 L120 162 ZM21 74 L240 74 L240 66 L21 66 L21 74 ZM132 47 L139 52 Q172 1 242 -12 L240 -21 Q166 -4 132 47 ZM90 202 L99 200 L99 95 L90 95 L90 202 ZM22 7 L20 16 Q72 29 104 59 L110 54 Q76 21 22 7 ZM93 27 L93 -13 Q97 -11 110 -3 Q124 5 127 7 L132 1 Q113 -9 93 -22 Q89 -26 86 -24 Q84 -22 84 -16 L84 28 L93 27 ZM79 146 L84 139 Q56 120 30 105 L25 113 Q55 128 79 146 ZM72 168 L66 159 Q49 174 33 184 L37 191 Q55 181 72 168 ZM185 15 L180 22 Q181 23 184 25 Q201 35 210 42 L215 35 Q202 24 185 15 ZM144 83 L137 78 Q127 91 113 102 L120 108 Q134 95 144 83 Z" /><glyph glyph-name="uni89C4" unicode="&#x89c4;" d="M66 158 L66 205 L75 202 L75 158 L112 158 L112 150 L75 150 Q74 122 71 93 L112 93 L112 85 L70 85 Q59 19 18 -18 L12 -12 Q52 25 61 85 L14 85 L14 93 L62 93 Q62 96 63 103 Q66 134 66 150 L22 150 L22 158 L66 158 ZM127 196 L230 196 L230 57 L222 57 L222 188 L135 188 L135 57 L127 57 L127 196 ZM170 151 L179 149 Q181 65 164 37 Q148 2 95 -19 L92 -11 Q140 7 156 41 Q172 73 170 151 ZM191 71 L191 3 Q192 -4 202 -5 L228 -5 Q241 -4 241 20 L250 17 Q247 -14 229 -14 L202 -14 Q183 -14 183 2 L183 76 L191 71 ZM74 66 L83 68 Q92 41 112 20 L106 14 Q86 37 74 66 Z" /><glyph glyph-name="uni8F91" unicode="&#x8f91;" d="M207 37 L140 37 L140 9 L132 9 L132 114 L109 114 L109 122 L244 122 L244 114 L216 114 L216 14 Q231 16 247 17 L247 10 Q241 9 230 8 Q221 6 216 6 L216 -25 L207 -25 L207 5 Q157 0 103 -5 L101 1 Q156 7 207 13 L207 37 ZM221 196 L221 143 L127 143 L127 196 L221 196 ZM113 50 L115 41 Q110 40 97 38 Q81 36 73 34 L73 -25 L64 -25 L64 32 Q54 30 35 27 Q19 24 14 23 L12 32 Q44 37 64 41 L64 82 L27 82 Q15 83 21 95 Q28 111 44 153 L15 153 L15 161 L48 161 Q49 165 52 172 Q58 185 64 205 L73 201 Q71 196 66 185 Q60 169 57 161 L114 161 L114 153 L54 153 Q39 115 28 90 L64 90 L64 129 L73 125 L73 90 L110 90 L110 82 L73 82 L73 42 Q98 47 113 50 ZM213 150 L213 188 L135 188 L135 150 L213 150 ZM140 76 L140 45 L207 45 L207 76 L140 76 ZM140 114 L140 83 L207 83 L207 114 L140 114 Z" /><glyph glyph-name="uni98CE" unicode="&#x98ce;" d="M54 83 L54 190 L202 190 L202 89 Q204 35 220 0 Q224 -4 226 -4 Q227 -4 231 0 Q233 3 237 9 Q240 14 242 18 L248 12 Q244 3 237 -5 Q226 -22 215 -6 Q196 22 193 89 L193 182 L62 182 L62 83 Q61 29 26 -12 L18 -7 Q53 32 54 83 ZM81 139 L86 146 Q110 123 133 96 Q148 123 161 154 L168 150 Q149 108 138 90 Q160 63 182 30 L174 23 Q158 49 133 83 Q110 46 80 23 L76 31 Q105 51 128 89 Q109 113 81 139 Z" /><glyph glyph-name="uni9A8C" unicode="&#x9a8c;" d="M76 81 L90 81 Q100 82 98 69 Q98 62 97 47 Q96 20 95 4 Q99 -22 55 -24 L53 -15 Q89 -14 87 4 Q90 38 90 73 L36 73 Q22 71 25 84 Q27 113 29 145 Q30 154 30 157 L38 156 Q36 136 33 81 L68 81 Q72 121 77 180 L12 180 L12 188 L77 188 Q86 188 86 179 Q81 140 76 81 ZM90 101 L86 109 Q122 130 154 201 Q160 206 165 201 Q201 137 242 118 L239 110 Q196 131 165 187 Q162 191 160 191 Q158 191 157 187 Q127 124 90 101 ZM234 -7 L234 -15 L105 -15 L105 -7 L175 -7 Q197 25 214 79 L222 76 Q206 26 186 -7 L234 -7 ZM210 110 L210 102 L122 102 L122 110 L210 110 ZM74 40 L78 31 Q75 30 68 29 Q34 21 14 15 L10 25 Q35 30 66 38 Q71 39 74 40 ZM180 32 L172 29 Q165 53 153 77 L161 81 Q169 65 180 32 ZM144 18 L137 15 Q126 44 115 62 L122 67 Q135 46 144 18 Z" /><glyph glyph-name="uni9AD8" unicode="&#x9ad8;" d="M196 107 L57 107 L57 146 L196 146 L196 107 ZM71 47 L182 47 L182 2 L71 2 L71 47 ZM31 -18 L23 -18 L23 82 L231 82 L231 8 Q233 -18 206 -16 L204 -7 Q225 -10 222 8 L222 74 L31 74 L31 -18 ZM174 39 L80 39 L80 9 L174 9 L174 39 ZM187 138 L65 138 L65 115 L187 115 L187 138 ZM134 182 L128 179 L239 179 L239 171 L15 171 L15 179 L125 179 Q119 195 114 204 L121 207 Q124 203 130 191 Q132 185 134 182 Z" /><glyph glyph-name="uni9F50" unicode="&#x9f50;" d="M19 72 L17 81 Q74 87 115 111 Q91 129 71 155 L79 159 Q97 134 125 116 Q155 136 176 164 L183 158 Q161 129 134 111 Q175 88 237 85 L235 76 Q165 80 124 105 Q82 81 19 72 ZM231 174 L231 165 L23 165 L23 174 L231 174 ZM83 79 L92 77 Q96 1 40 -25 L34 -18 Q89 5 83 79 ZM165 77 L175 75 L175 -25 L165 -25 L165 77 ZM137 185 L129 178 Q128 179 125 182 Q111 199 104 205 L111 211 Q123 199 137 185 Z" /><glyph glyph-name="uniFF0C" unicode="&#xff0c;" d="M79 49 L79 5 Q77 -26 49 -29 L49 -21 Q68 -16 69 5 L69 14 L49 14 L49 49 L79 49 Z" /></font>
</defs>
</svg>
